<?xml version="1.0" standalone="no"?>
<!DOCTYPE svg PUBLIC "-//W3C//DTD SVG 1.1//EN" "http://www.w3.org/Graphics/SVG/1.1/DTD/svg11.dtd">
<svg xmlns="http://www.w3.org/2000/svg" width="238" height="58" viewBox="0 0 238 58" fill="none">
<g clip-path="url(#clip0_65_239)">
<path d="M42.2584 36.2716C42.0515 36.268 33.3164 16.8371 27.1578 3.65683C24.8777 -1.22292 17.9369 -1.21729 15.6634 3.66502C11.0289 13.6165 4.54624 27.5391 0.526024 36.1723C-1.18947 39.8562 1.50023 44.0755 5.56396 44.0755C7.1228 44.0755 8.67294 43.8472 10.1657 43.3977L29.6597 37.5269L25.6819 28.8061L13.0295 32.7316L21.3863 14.5702C25.0108 22.5641 30.2412 34.0201 34.0362 42.399C34.499 43.4203 35.5162 44.0761 36.6373 44.0761C39.7929 44.0761 45.8972 44.0761 45.8972 44.0761L42.2584 36.2726V36.2716Z" fill="url(#paint0_linear_65_239)"/>
<path d="M52.5547 36.4333C52.5547 30.5835 57.2138 28.8229 62.7017 28.098C67.6716 27.4765 69.4321 26.959 69.4321 25.1472C69.4321 23.4389 68.3448 22.2999 65.8081 22.2999C63.1159 22.2999 61.77 23.4906 61.511 25.717H53.7454C53.9528 20.7989 57.7319 16.6051 65.7564 16.6051C69.7429 16.6051 72.4346 17.33 74.3503 18.7793C76.6284 20.4359 77.7152 23.0242 77.7152 26.338V39.6949C77.7152 41.8173 77.922 43.0081 78.6469 43.4739V43.8364H70.4673C70.0531 43.2671 69.7941 42.2315 69.5872 40.8856H69.4838C67.9306 43.1115 65.6008 44.5096 61.6149 44.5096C56.3343 44.5096 52.5552 41.6622 52.5552 36.4333H52.5547ZM69.6389 34.3625V31.2044C68.5516 31.7737 66.9984 32.1879 65.2901 32.602C62.0285 33.3269 60.6827 34.1552 60.6827 36.1743C60.6827 38.2968 62.2359 39.1251 64.3066 39.1251C67.4648 39.1251 69.6389 37.2094 69.6389 34.362V34.3625ZM65.5491 6.56198H75.282L69.018 14.2241H62.5983L65.5491 6.56198Z" fill="#505050"/>
<path d="M79.8881 44.4578H88.0678C88.5337 45.8553 89.9318 47.0461 92.7269 47.0461C96.2992 47.0461 97.8007 45.1821 97.8007 41.9723V39.3318H97.5934C96.0402 41.0918 94.0211 42.3865 90.8113 42.3865C84.8575 42.3865 79.3184 37.9342 79.3184 29.8062C79.3184 21.6782 83.8741 16.5528 90.4488 16.5528C93.9694 16.5528 96.3509 17.9503 97.9036 20.1767H98.007V17.3294H106.083V41.2474C106.083 45.2339 104.686 48.1329 102.563 50.0486C100.233 52.1194 96.7645 52.9994 92.8298 52.9994C85.5302 52.9994 80.7154 49.9969 79.8871 44.4572L79.8881 44.4578ZM98.1632 29.496C98.1632 25.9237 96.2992 22.9212 92.7791 22.9212C89.621 22.9212 87.5503 25.5096 87.5503 29.5477C87.5503 33.5858 89.621 36.1225 92.7791 36.1225C96.4548 36.1225 98.1632 33.2234 98.1632 29.496Z" fill="#505050"/>
<path d="M108.828 6.82037H117.267V13.6542H108.828V6.82037ZM108.828 17.3299H117.267V43.8363H108.828V17.3299Z" fill="#505050"/>
<path d="M120.062 6.82037H128.605V43.8363H120.062V6.82037Z" fill="#505050"/>
</g>
<path d="M137.148 44V32.3636H141.511C142.405 32.3636 143.155 32.5303 143.761 32.8636C144.371 33.197 144.831 33.6553 145.142 34.2386C145.456 34.8182 145.614 35.4773 145.614 36.2159C145.614 36.9621 145.456 37.625 145.142 38.2045C144.828 38.7841 144.364 39.2405 143.75 39.5739C143.136 39.9034 142.381 40.0682 141.483 40.0682H138.591V38.3352H141.199C141.722 38.3352 142.15 38.2443 142.483 38.0625C142.816 37.8807 143.063 37.6307 143.222 37.3125C143.384 36.9943 143.466 36.6288 143.466 36.2159C143.466 35.803 143.384 35.4394 143.222 35.125C143.063 34.8106 142.814 34.5663 142.477 34.392C142.144 34.214 141.714 34.125 141.188 34.125H139.256V44H137.148ZM148.885 44V32.3636H156.453V34.1307H150.993V37.2898H156.061V39.0568H150.993V42.233H156.498V44H148.885ZM160.043 44V32.3636H164.407C165.301 32.3636 166.051 32.5189 166.657 32.8295C167.267 33.1402 167.727 33.5758 168.038 34.1364C168.352 34.6932 168.509 35.3428 168.509 36.0852C168.509 36.8314 168.35 37.4792 168.032 38.0284C167.718 38.5739 167.254 38.9962 166.64 39.2955C166.026 39.5909 165.273 39.7386 164.379 39.7386H161.271V37.9886H164.094C164.617 37.9886 165.045 37.9167 165.379 37.7727C165.712 37.625 165.958 37.411 166.117 37.1307C166.28 36.8466 166.362 36.4981 166.362 36.0852C166.362 35.6723 166.28 35.3201 166.117 35.0284C165.954 34.733 165.706 34.5095 165.373 34.358C165.04 34.2027 164.61 34.125 164.083 34.125H162.151V44H160.043ZM166.055 38.7273L168.935 44H166.583L163.754 38.7273H166.055ZM178.213 35.5625C178.16 35.0663 177.937 34.6799 177.543 34.4034C177.153 34.1269 176.645 33.9886 176.02 33.9886C175.581 33.9886 175.204 34.0549 174.89 34.1875C174.575 34.3201 174.335 34.5 174.168 34.7273C174.001 34.9545 173.916 35.214 173.912 35.5057C173.912 35.7481 173.967 35.9583 174.077 36.1364C174.191 36.3144 174.344 36.4659 174.537 36.5909C174.731 36.7121 174.945 36.8144 175.179 36.8977C175.414 36.9811 175.651 37.0511 175.89 37.108L176.981 37.3807C177.42 37.483 177.842 37.6212 178.248 37.7955C178.657 37.9697 179.022 38.1894 179.344 38.4545C179.67 38.7197 179.927 39.0398 180.117 39.4148C180.306 39.7898 180.401 40.2292 180.401 40.733C180.401 41.4148 180.227 42.0152 179.878 42.5341C179.53 43.0492 179.026 43.4527 178.367 43.7443C177.712 44.0322 176.918 44.1761 175.986 44.1761C175.081 44.1761 174.295 44.036 173.628 43.7557C172.965 43.4754 172.446 43.0663 172.071 42.5284C171.7 41.9905 171.499 41.3352 171.469 40.5625H173.543C173.573 40.9678 173.698 41.3049 173.918 41.5739C174.138 41.8428 174.424 42.0436 174.776 42.1761C175.132 42.3087 175.53 42.375 175.969 42.375C176.427 42.375 176.829 42.3068 177.174 42.1705C177.522 42.0303 177.795 41.8371 177.992 41.5909C178.189 41.3409 178.289 41.0492 178.293 40.7159C178.289 40.4129 178.2 40.1629 178.026 39.9659C177.852 39.7652 177.607 39.5985 177.293 39.4659C176.982 39.3295 176.619 39.2083 176.202 39.1023L174.878 38.7614C173.92 38.5152 173.162 38.142 172.606 37.642C172.052 37.1383 171.776 36.4697 171.776 35.6364C171.776 34.9508 171.962 34.3504 172.333 33.8352C172.708 33.3201 173.217 32.9205 173.861 32.6364C174.505 32.3485 175.234 32.2045 176.049 32.2045C176.874 32.2045 177.598 32.3485 178.219 32.6364C178.844 32.9205 179.335 33.3163 179.691 33.8239C180.047 34.3277 180.231 34.9072 180.242 35.5625H178.213ZM185.828 32.3636V44H183.72V32.3636H185.828ZM191.045 44H188.795L192.892 32.3636H195.494L199.596 44H197.346L194.238 34.75H194.147L191.045 44ZM191.119 39.4375H197.255V41.1307H191.119V39.4375ZM212.131 32.3636V44H210.256L204.774 36.0739H204.677V44H202.569V32.3636H204.455L209.933 40.2955H210.035V32.3636H212.131ZM217.363 44H215.113L219.209 32.3636H221.812L225.914 44H223.664L220.556 34.75H220.465L217.363 44ZM217.437 39.4375H223.573V41.1307H217.437V39.4375ZM235.023 35.5625C234.97 35.0663 234.746 34.6799 234.352 34.4034C233.962 34.1269 233.455 33.9886 232.83 33.9886C232.39 33.9886 232.013 34.0549 231.699 34.1875C231.385 34.3201 231.144 34.5 230.977 34.7273C230.811 34.9545 230.725 35.214 230.722 35.5057C230.722 35.7481 230.777 35.9583 230.886 36.1364C231 36.3144 231.154 36.4659 231.347 36.5909C231.54 36.7121 231.754 36.8144 231.989 36.8977C232.224 36.9811 232.46 37.0511 232.699 37.108L233.79 37.3807C234.229 37.483 234.652 37.6212 235.057 37.7955C235.466 37.9697 235.832 38.1894 236.154 38.4545C236.479 38.7197 236.737 39.0398 236.926 39.4148C237.116 39.7898 237.21 40.2292 237.21 40.733C237.21 41.4148 237.036 42.0152 236.688 42.5341C236.339 43.0492 235.835 43.4527 235.176 43.7443C234.521 44.0322 233.727 44.1761 232.796 44.1761C231.89 44.1761 231.104 44.036 230.438 43.7557C229.775 43.4754 229.256 43.0663 228.881 42.5284C228.51 41.9905 228.309 41.3352 228.279 40.5625H230.352C230.383 40.9678 230.508 41.3049 230.727 41.5739C230.947 41.8428 231.233 42.0436 231.585 42.1761C231.941 42.3087 232.339 42.375 232.779 42.375C233.237 42.375 233.638 42.3068 233.983 42.1705C234.332 42.0303 234.604 41.8371 234.801 41.5909C234.998 41.3409 235.099 41.0492 235.102 40.7159C235.099 40.4129 235.01 40.1629 234.835 39.9659C234.661 39.7652 234.417 39.5985 234.102 39.4659C233.792 39.3295 233.428 39.2083 233.011 39.1023L231.688 38.7614C230.729 38.5152 229.972 38.142 229.415 37.642C228.862 37.1383 228.585 36.4697 228.585 35.6364C228.585 34.9508 228.771 34.3504 229.142 33.8352C229.517 33.3201 230.027 32.9205 230.671 32.6364C231.315 32.3485 232.044 32.2045 232.858 32.2045C233.684 32.2045 234.407 32.3485 235.029 32.6364C235.654 32.9205 236.144 33.3163 236.5 33.8239C236.856 34.3277 237.04 34.9072 237.051 35.5625H235.023Z" fill="#8B8B8B"/>
<defs>
<linearGradient id="paint0_linear_65_239" x1="0" y1="22.0381" x2="45.8972" y2="22.0381" gradientUnits="userSpaceOnUse">
<stop stop-color="#F56600"/>
<stop offset="1" stop-color="#FBAC00"/>
</linearGradient>
<clipPath id="clip0_65_239">
<rect width="128.604" height="53" fill="white"/>
</clipPath>
</defs>
</svg>